<svg xmlns="http://www.w3.org/2000/svg" viewBox="0 0 32 32">
<path d="M19.798 16.001l11.885-11.884c0.422-0.422 0.422-1.105 0-1.527l-2.271-2.272c-0.195-0.195-0.465-0.316-0.763-0.316s-0.568 0.121-0.763 0.316l-11.885 11.885-11.885-11.885c-0.195-0.195-0.465-0.316-0.763-0.316s-0.568 0.121-0.763 0.316v0l-2.271 2.272c-0.422 0.422-0.422 1.105 0 1.527l11.885 11.885-11.884 11.883c-0.422 0.422-0.422 1.105 0 1.527l2.272 2.272c0.195 0.195 0.465 0.316 0.763 0.316s0.568-0.121 0.763-0.316v0l11.884-11.884 11.884 11.884c0.195 0.195 0.465 0.316 0.763 0.316s0.568-0.121 0.763-0.316v0l2.272-2.272c0.422-0.422 0.422-1.105 0-1.527l-11.884-11.883z"></path>
</svg>